<?xml version="1.0" encoding="UTF-8" standalone="no"?>
<!-- Created with Inkscape (http://www.inkscape.org/) -->

<svg
 xmlns:dc="http://purl.org/dc/elements/1.1/"
 xmlns:cc="http://creativecommons.org/ns#"
 xmlns:rdf="http://www.w3.org/1999/02/22-rdf-syntax-ns#"
 xmlns:svg="http://www.w3.org/2000/svg"
 xmlns="http://www.w3.org/2000/svg"
 xmlns:sodipodi="http://sodipodi.sourceforge.net/DTD/sodipodi-0.dtd"
 xmlns:inkscape="http://www.inkscape.org/namespaces/inkscape"
 width="210mm"
 height="297mm"
 viewBox="0 0 210 297"
 version="1.1"
 id="svg4521"
 inkscape:version="0.92.5 (2060ec1f9f, 2020-04-08)"
 sodipodi:docname="fuseballs.svg">
<defs
 id="defs4515" />
<sodipodi:namedview
 id="base"
 pagecolor="#ffffff"
 bordercolor="#666666"
 borderopacity="1.0"
 inkscape:pageopacity="0.0"
 inkscape:pageshadow="2"
 inkscape:zoom="0.98994949"
 inkscape:cx="237.78553"
 inkscape:cy="559.92223"
 inkscape:document-units="mm"
 inkscape:current-layer="layer1"
 showgrid="false"
 inkscape:window-width="1920"
 inkscape:window-height="1017"
 inkscape:window-x="-8"
 inkscape:window-y="-8"
 inkscape:window-maximized="1" />
<metadata
 id="metadata4518">
<rdf:RDF>
<cc:Work
 rdf:about="">
<dc:format>image/svg+xml</dc:format>
<dc:type
 rdf:resource="http://purl.org/dc/dcmitype/StillImage" />
<dc:title></dc:title>
</cc:Work>
</rdf:RDF>
</metadata>
<g
 inkscape:label="Layer 1"
 inkscape:groupmode="layer"
 id="layer1">
<path
 style="fill:none;stroke:#000000;stroke-width:0.26458332px;stroke-linecap:butt;stroke-linejoin:miter;stroke-opacity:1"
 d="M 91.138908,97.616932 88.198943,103.22959 99.424264,105.90229 95.415221,110.44587 84.72444,111.78222 79.913587,105.36775 92.742524,112.04948 105.03692,126.21477 C 105.03692,126.21477 86.862596,121.13665 90.604368,120.86938 94.346142,120.60211 101.56242,120.60211 101.56242,120.60211 L 115.7277,123.80935 112.52047,128.88746 114.39136,112.31676 109.31324,109.10952 111.71866,116.59307 122.67671,114.45491 123.47852,107.23863 118.93494,117.92942 135.50565,138.2419 125.61668,135.5692 131.76387,125.41296 110.11504,128.35293 99.691533,128.88746 108.7787,139.31098 106.106,124.07661 84.457169,137.97463 103.96784,155.07988 84.991709,158.28711 109.84778,144.12183 83.655362,135.03466 57.195677,131.82743 66.282842,142.78548 72.69731,119.53303 81.249934,115.79126 87.664403,129.422 73.23185,119.8003 103.43331,124.61115 97.018836,130.75835 Z"
 id="path4525"
 inkscape:connector-curvature="0" />
</g>
</svg>
