<?xml version="1.0" encoding="UTF-8" standalone="no"?>
<!-- Created with Inkscape (http://www.inkscape.org/) -->

<svg
   width="210mm"
   height="297mm"
   viewBox="0 0 210 297"
   version="1.1"
   id="svg1"
   inkscape:version="1.3.2 (091e20e, 2023-11-25, custom)"
   sodipodi:docname="map13.svg"
   xmlns:inkscape="http://www.inkscape.org/namespaces/inkscape"
   xmlns:sodipodi="http://sodipodi.sourceforge.net/DTD/sodipodi-0.dtd"
   xmlns="http://www.w3.org/2000/svg"
   xmlns:svg="http://www.w3.org/2000/svg">
  <sodipodi:namedview
     id="namedview1"
     pagecolor="#ffffff"
     bordercolor="#000000"
     borderopacity="0.25"
     inkscape:showpageshadow="2"
     inkscape:pageopacity="0.0"
     inkscape:pagecheckerboard="0"
     inkscape:deskcolor="#d1d1d1"
     inkscape:document-units="mm"
     inkscape:zoom="4"
     inkscape:cx="290.875"
     inkscape:cy="644.625"
     inkscape:window-width="1920"
     inkscape:window-height="1009"
     inkscape:window-x="-8"
     inkscape:window-y="-8"
     inkscape:window-maximized="1"
     inkscape:current-layer="layer1" />
  <defs
     id="defs1" />
  <g
     inkscape:label="Layer 1"
     inkscape:groupmode="layer"
     id="layer1">
    <path
       id="path1-7-5"
       style="fill:none;stroke:#000000;stroke-width:0.264583px;stroke-linecap:butt;stroke-linejoin:miter;stroke-opacity:1"
       d="M 75.915756,165.91647 80.371696,170.37241 M 69.828822,164.28547 75.915756,165.91647 M 64.371426,167.43629 69.828822,164.28547 M 62.740434,173.52323 64.371426,167.43629 M 64.371414,179.61017 62.740434,173.52323 M 64.371414,179.61017 68.827354,184.06611 M 73.283292,188.52205 68.827354,184.06611 M 80.363922,192.64171 73.283292,188.52205 M 87.440455,188.55607 80.363922,192.64171 M 91.916028,184.06614 87.46008,188.52208 M 96.371976,179.6102 91.916028,184.06614 M 98.002966,173.52326 96.371976,179.6102 M 96.371976,167.43632 98.002966,173.52326 M 90.914578,164.28549 96.371976,167.43632 M 84.827642,165.91647 90.914578,164.28549 M 80.371696,170.37241 84.827642,165.91647" />
  </g>
</svg>
