<?xml version="1.0" encoding="UTF-8" standalone="no"?>
<!-- Created with Inkscape (http://www.inkscape.org/) -->

<svg
 xmlns:dc="http://purl.org/dc/elements/1.1/"
 xmlns:cc="http://creativecommons.org/ns#"
 xmlns:rdf="http://www.w3.org/1999/02/22-rdf-syntax-ns#"
 xmlns:svg="http://www.w3.org/2000/svg"
 xmlns="http://www.w3.org/2000/svg"
 xmlns:sodipodi="http://sodipodi.sourceforge.net/DTD/sodipodi-0.dtd"
 xmlns:inkscape="http://www.inkscape.org/namespaces/inkscape"
 width="210mm"
 height="297mm"
 viewBox="0 0 210 297"
 version="1.1"
 id="svg3894"
 inkscape:version="0.92.5 (2060ec1f9f, 2020-04-08)"
 sodipodi:docname="mapa5.svg">
<defs
 id="defs3888" />
<sodipodi:namedview
 id="base"
 pagecolor="#ffffff"
 bordercolor="#666666"
 borderopacity="1.0"
 inkscape:pageopacity="0.0"
 inkscape:pageshadow="2"
 inkscape:zoom="1.4"
 inkscape:cx="624.02352"
 inkscape:cy="514.57148"
 inkscape:document-units="mm"
 inkscape:current-layer="layer1"
 showgrid="false"
 inkscape:window-width="1920"
 inkscape:window-height="1017"
 inkscape:window-x="-8"
 inkscape:window-y="-8"
 inkscape:window-maximized="1" />
<metadata
 id="metadata3891">
<rdf:RDF>
<cc:Work
 rdf:about="">
<dc:format>image/svg+xml</dc:format>
<dc:type
 rdf:resource="http://purl.org/dc/dcmitype/StillImage" />
<dc:title></dc:title>
</cc:Work>
</rdf:RDF>
</metadata>
<g
 inkscape:label="Layer 1"
 inkscape:groupmode="layer"
 id="layer1">
<path
 id="path3914-2-70-8"
 style="color:#000000;font-style:normal;font-variant:normal;font-weight:normal;font-stretch:normal;font-size:medium;line-height:normal;font-family:sans-serif;font-variant-ligatures:normal;font-variant-position:normal;font-variant-caps:normal;font-variant-numeric:normal;font-variant-alternates:normal;font-feature-settings:normal;text-indent:0;text-align:start;text-decoration:none;text-decoration-line:none;text-decoration-style:solid;text-decoration-color:#000000;letter-spacing:normal;word-spacing:normal;text-transform:none;writing-mode:lr-tb;direction:ltr;text-orientation:mixed;dominant-baseline:auto;baseline-shift:baseline;text-anchor:start;white-space:normal;shape-padding:0;clip-rule:nonzero;display:inline;overflow:visible;visibility:visible;opacity:1;isolation:auto;mix-blend-mode:normal;color-interpolation:sRGB;color-interpolation-filters:linearRGB;solid-color:#000000;solid-opacity:1;vector-effect:none;fill:#000000;fill-opacity:1;fill-rule:nonzero;stroke:none;stroke-width:0.26458332px;stroke-linecap:butt;stroke-linejoin:miter;stroke-miterlimit:4;stroke-dasharray:none;stroke-dashoffset:0;stroke-opacity:1;color-rendering:auto;image-rendering:auto;shape-rendering:auto;text-rendering:auto;enable-background:accumulate"
 d="M 160.12891,118.48828 159.9082,118.63281 172.89453,138.56055 173.11719,138.41602 M 139.89062,105.88477 139.75,106.10938 159.94922,118.67188 160.08789,118.44727 M 124.11133,88.132809 123.91406,88.308589 139.7207,106.08398 139.91797,105.9082 M 100.12695,88.132811 84.320311,105.9082 84.517581,106.08398 100.32422,88.308591 M 84.349613,105.88477 64.150393,118.44727 64.291013,118.67188 84.488283,106.10938 M 64.109373,118.48828 51.123043,138.41602 51.343753,138.56055 64.332033,118.63281 M 172.87304,138.48829 V 162.27541 H 173.13866 V 138.48829 M 51.343753,162.20312 51.123043,162.34766 64.109373,182.27539 64.332033,182.13086 M 172.89453,162.20312 159.9082,182.13086 160.12891,182.27539 173.11719,162.34766 M 64.291013,182.0918 64.150393,182.31641 84.349613,194.87891 84.488283,194.6543 M 84.51758,194.67969 84.32031,194.85547 100.12695,212.63086 100.32422,212.45508 M 100.22656,88.087889 V 88.353519 H 124.01367 V 88.087889 M 51.101563,138.48828 V 162.27539 H 51.365233 V 138.48828 M 159.94922,182.0918 139.75,194.6543 139.89062,194.87891 160.08789,182.31641 M 139.7207,194.67969 123.91406,212.45508 124.11133,212.63086 139.91797,194.85547 M 100.22656,212.41014 V 212.67576 H 124.01368 V 212.41014 Z"
 inkscape:connector-curvature="0" />
</g>
</svg>
