<?xml version="1.0" encoding="UTF-8" standalone="no"?>
<!-- Created with Inkscape (http://www.inkscape.org/) -->

<svg
   width="210mm"
   height="297mm"
   viewBox="0 0 210 297"
   version="1.1"
   id="svg1"
   inkscape:version="1.3.2 (091e20e, 2023-11-25, custom)"
   sodipodi:docname="map7.svg"
   xmlns:inkscape="http://www.inkscape.org/namespaces/inkscape"
   xmlns:sodipodi="http://sodipodi.sourceforge.net/DTD/sodipodi-0.dtd"
   xmlns="http://www.w3.org/2000/svg"
   xmlns:svg="http://www.w3.org/2000/svg">
  <sodipodi:namedview
     id="namedview1"
     pagecolor="#ffffff"
     bordercolor="#000000"
     borderopacity="0.25"
     inkscape:showpageshadow="2"
     inkscape:pageopacity="0.0"
     inkscape:pagecheckerboard="0"
     inkscape:deskcolor="#d1d1d1"
     inkscape:document-units="mm"
     inkscape:zoom="2.8970539"
     inkscape:cx="176.55868"
     inkscape:cy="463.05663"
     inkscape:window-width="1920"
     inkscape:window-height="1009"
     inkscape:window-x="-8"
     inkscape:window-y="-8"
     inkscape:window-maximized="1"
     inkscape:current-layer="layer1" />
  <defs
     id="defs1" />
  <g
     inkscape:label="Layer 1"
     inkscape:groupmode="layer"
     id="layer1">
    <path
       id="path1-03-0-9-1"
       style="fill:none;stroke:#000000;stroke-width:0.264583px;stroke-linecap:butt;stroke-linejoin:miter;stroke-opacity:1"
       d="M 33.179989,114.61404 46.230289,122.14863 M 37.080179,100.05831 33.179989,114.61404 M 51.635896,96.158113 37.080179,100.05831 M 59.170496,109.20841 51.635896,96.158113 M 59.170496,109.20841 66.705092,96.158113 M 66.705092,96.158113 81.26081,100.05831 M 81.26081,100.05831 85.161002,114.61404 M 85.161002,114.61404 72.110696,122.14861 M 72.110696,122.12715 85.161002,129.66172 M 81.26081,144.21744 85.161002,129.66172 M 66.705092,148.11764 81.26081,144.21744 M 59.170496,135.06735 66.705092,148.11764 M 59.170496,135.06735 51.635896,148.11764 M 51.635896,148.11764 37.080179,144.21744 M 37.080179,144.21744 33.179989,129.66172 M 46.230289,122.12713 33.179989,129.66172" />
  </g>
</svg>
