<?xml version="1.0" encoding="UTF-8" standalone="no"?>
<!-- Created with Inkscape (http://www.inkscape.org/) -->

<svg
 xmlns:dc="http://purl.org/dc/elements/1.1/"
 xmlns:cc="http://creativecommons.org/ns#"
 xmlns:rdf="http://www.w3.org/1999/02/22-rdf-syntax-ns#"
 xmlns:svg="http://www.w3.org/2000/svg"
 xmlns="http://www.w3.org/2000/svg"
 xmlns:sodipodi="http://sodipodi.sourceforge.net/DTD/sodipodi-0.dtd"
 xmlns:inkscape="http://www.inkscape.org/namespaces/inkscape"
 width="210mm"
 height="297mm"
 viewBox="0 0 210 297"
 version="1.1"
 id="svg8"
 inkscape:version="0.92.5 (2060ec1f9f, 2020-04-08)"
 sodipodi:docname="tanker.svg">
<defs
 id="defs2" />
<sodipodi:namedview
 id="base"
 pagecolor="#ffffff"
 bordercolor="#666666"
 borderopacity="1.0"
 inkscape:pageopacity="0.0"
 inkscape:pageshadow="2"
 inkscape:zoom="1.979899"
 inkscape:cx="442.97842"
 inkscape:cy="472.39073"
 inkscape:document-units="mm"
 inkscape:current-layer="layer1"
 showgrid="false"
 inkscape:window-width="1920"
 inkscape:window-height="1017"
 inkscape:window-x="-8"
 inkscape:window-y="-8"
 inkscape:window-maximized="1" />
<metadata
 id="metadata5">
<rdf:RDF>
<cc:Work
 rdf:about="">
<dc:format>image/svg+xml</dc:format>
<dc:type
 rdf:resource="http://purl.org/dc/dcmitype/StillImage" />
<dc:title></dc:title>
</cc:Work>
</rdf:RDF>
</metadata>
<g
 inkscape:label="Layer 1"
 inkscape:groupmode="layer"
 id="layer1">
<path
 id="path55-7-5-06"
 style="color:#000000;font-style:normal;font-variant:normal;font-weight:normal;font-stretch:normal;font-size:medium;line-height:normal;font-family:sans-serif;font-variant-ligatures:normal;font-variant-position:normal;font-variant-caps:normal;font-variant-numeric:normal;font-variant-alternates:normal;font-feature-settings:normal;text-indent:0;text-align:start;text-decoration:none;text-decoration-line:none;text-decoration-style:solid;text-decoration-color:#000000;letter-spacing:normal;word-spacing:normal;text-transform:none;writing-mode:lr-tb;direction:ltr;text-orientation:mixed;dominant-baseline:auto;baseline-shift:baseline;text-anchor:start;white-space:normal;shape-padding:0;clip-rule:nonzero;display:inline;overflow:visible;visibility:visible;opacity:1;isolation:auto;mix-blend-mode:normal;color-interpolation:sRGB;color-interpolation-filters:linearRGB;solid-color:#000000;solid-opacity:1;vector-effect:none;fill:#000000;fill-opacity:1;fill-rule:nonzero;stroke:none;stroke-width:0.26458332px;stroke-linecap:butt;stroke-linejoin:miter;stroke-miterlimit:4;stroke-dasharray:none;stroke-dashoffset:0;stroke-opacity:1;color-rendering:auto;image-rendering:auto;shape-rendering:auto;text-rendering:auto;enable-background:accumulate"
 d="M 91.5,148.76172 91.445312,148.76367 73.324219,149.07812 73.304688,149.3418 96.0625,153.22656 Z M 91.394531,149.02734 95.273438,152.82422 74.748047,149.31836 Z M 99.099609,144.54883 103.67578,149.02734 H 103.72852 L 121.70508,149.34375 121.73438,149.08203 121.71094,149.07812 Z M 99.923828,144.98438 120.23633,149.05273 103.78711,148.76367 Z M 97.388672,124.99609 97.384766,125.02148 93.25,147.37695 97.722656,142.80664 V 142.75195 L 97.650391,125.01953 Z M 97.390625,126.43945 97.457031,142.69922 93.667969,146.57031 Z M 101.93555,150.40625 97.458984,154.98242 97.457031,155.03516 97.140625,173.01172 97.402344,173.04102 97.40625,173.01758 Z M 101.50195,151.22852 97.431641,171.55273 97.722656,155.0918 Z M 97.496094,142.66016 91.353516,148.80273 91.447266,148.89453 91.353516,148.98828 97.496094,155.13086 97.589844,155.03711 97.683594,155.13086 103.82422,148.98828 103.73047,148.89453 103.82422,148.80273 97.683594,142.66016 97.589844,142.75391 Z M 97.589844,142.94141 103.54492,148.89453 97.589844,154.84961 91.634766,148.89453 Z M 97.423828,124.92773 73.234375,149.11719 73.328125,149.21094 73.234375,149.30469 97.423828,173.49609 97.517578,173.40234 97.611328,173.49609 121.80273,149.30469 121.70898,149.21094 121.80273,149.11719 97.611328,124.92773 97.517578,125.02148 Z M 97.517578,125.20898 121.52148,149.21094 97.517578,173.21484 73.515625,149.21094 Z" />
</g>
</svg>
