<?xml version="1.0" encoding="UTF-8" standalone="no"?>
<!-- Created with Inkscape (http://www.inkscape.org/) -->

<svg
   xmlns:dc="http://purl.org/dc/elements/1.1/"
   xmlns:cc="http://creativecommons.org/ns#"
   xmlns:rdf="http://www.w3.org/1999/02/22-rdf-syntax-ns#"
   xmlns:svg="http://www.w3.org/2000/svg"
   xmlns="http://www.w3.org/2000/svg"
   xmlns:sodipodi="http://sodipodi.sourceforge.net/DTD/sodipodi-0.dtd"
   xmlns:inkscape="http://www.inkscape.org/namespaces/inkscape"
   width="210mm"
   height="297mm"
   viewBox="0 0 210 297"
   version="1.1"
   id="svg8"
   inkscape:version="0.92.5 (2060ec1f9f, 2020-04-08)"
   sodipodi:docname="testmap.svg">
  <defs
     id="defs2">
    <inkscape:path-effect
       effect="attach_path"
       id="path-effect39"
       endposition="40"
       startcurveend="0,0 , 19.999513,0.13962521"
       startcurvestart="0,0 , 19.098953,-0.20001106" />
  </defs>
  <sodipodi:namedview
     id="base"
     pagecolor="#ffffff"
     bordercolor="#666666"
     borderopacity="1.0"
     inkscape:pageopacity="0.0"
     inkscape:pageshadow="2"
     inkscape:zoom="1.4269231"
     inkscape:cx="439.66538"
     inkscape:cy="802.27298"
     inkscape:document-units="mm"
     inkscape:current-layer="layer1"
     showgrid="false"
     inkscape:window-width="1920"
     inkscape:window-height="1017"
     inkscape:window-x="-8"
     inkscape:window-y="-8"
     inkscape:window-maximized="1" />
  <metadata
     id="metadata5">
    <rdf:RDF>
      <cc:Work
         rdf:about="">
        <dc:format>image/svg+xml</dc:format>
        <dc:type
           rdf:resource="http://purl.org/dc/dcmitype/StillImage" />
        <dc:title></dc:title>
      </cc:Work>
    </rdf:RDF>
  </metadata>
  <g
     inkscape:label="Layer 1"
     inkscape:groupmode="layer"
     id="layer1">
    <path
       style="fill:#ffffff;stroke:#000000;stroke-width:0.215;stroke-miterlimit:4;stroke-dasharray:none;stroke-opacity:1"
       d="M 112.97451,125.75029 C 108.4425,126.54224 103.90795,127.54348 99.377532,128.20478 94.952945,127.21598 90.44591,126.41956 86.072795,125.31066 82.363405,122.70392 78.504222,120.24336 74.888348,117.54536 72.458878,113.71751 69.835074,109.96741 67.526923,106.09103 66.747236,101.62486 65.758261,97.156126 65.10923,92.691541 66.098027,88.266955 66.894444,83.75992 68.003342,79.386806 70.610087,75.677417 73.070648,71.818236 75.768654,68.202362 79.596494,65.772892 83.346601,63.149089 87.22297,60.840939 91.689152,60.061253 96.157885,59.072278 100.62247,58.423247 105.04706,59.412044 109.55409,60.208459 113.9272,61.317358 117.63659,63.924102 121.49578,66.384662 125.11165,69.082668 127.54112,72.910506 130.16492,76.660614 132.47308,80.536981 133.25276,85.003162 134.24173,89.471894 134.89076,93.936481 133.90197,98.361069 133.10556,102.8681 131.99666,107.24122 129.38991,110.95061 126.92934,114.80978 124.23133,118.42566 120.47907,120.86721 116.72679,123.30875 112.97451,125.75029 Z"
       id="path34"
       inkscape:connector-curvature="0" />
    <ellipse
       style="fill:#ffffff;stroke:#000000;stroke-width:0.21499999;stroke-miterlimit:4;stroke-dasharray:none;stroke-opacity:1"
       id="path4607"
       cx="77.563904"
       cy="298.0202"
       rx="34.892498"
       ry="34.892502" />
  </g>
</svg>
