<?xml version="1.0" encoding="UTF-8" standalone="no"?>
<!-- Created with Inkscape (http://www.inkscape.org/) -->

<svg
   xmlns:dc="http://purl.org/dc/elements/1.1/"
   xmlns:cc="http://creativecommons.org/ns#"
   xmlns:rdf="http://www.w3.org/1999/02/22-rdf-syntax-ns#"
   xmlns:svg="http://www.w3.org/2000/svg"
   xmlns="http://www.w3.org/2000/svg"
   xmlns:sodipodi="http://sodipodi.sourceforge.net/DTD/sodipodi-0.dtd"
   xmlns:inkscape="http://www.inkscape.org/namespaces/inkscape"
   width="210mm"
   height="297mm"
   viewBox="0 0 210 297"
   version="1.1"
   id="svg8"
   inkscape:version="0.92.5 (2060ec1f9f, 2020-04-08)"
   sodipodi:docname="zgon4.svg">
  <defs
     id="defs2" />
  <sodipodi:namedview
     id="base"
     pagecolor="#ffffff"
     bordercolor="#666666"
     borderopacity="1.0"
     inkscape:pageopacity="0.0"
     inkscape:pageshadow="2"
     inkscape:zoom="0.98994949"
     inkscape:cx="472.63766"
     inkscape:cy="541.08208"
     inkscape:document-units="mm"
     inkscape:current-layer="layer1"
     showgrid="false"
     inkscape:window-width="1920"
     inkscape:window-height="1017"
     inkscape:window-x="-8"
     inkscape:window-y="-8"
     inkscape:window-maximized="1" />
  <metadata
     id="metadata5">
    <rdf:RDF>
      <cc:Work
         rdf:about="">
        <dc:format>image/svg+xml</dc:format>
        <dc:type
           rdf:resource="http://purl.org/dc/dcmitype/StillImage" />
        <dc:title></dc:title>
      </cc:Work>
    </rdf:RDF>
  </metadata>
  <g
     inkscape:label="Layer 1"
     inkscape:groupmode="layer"
     id="layer1">
    <path
       id="path71"
       style="fill:none;stroke:#000000;stroke-width:0.26458332px;stroke-linecap:butt;stroke-linejoin:miter;stroke-opacity:1"
       d="M 164.85691,107.08595 152.34363,92.538811 129.89299,86.65888 173.85883,154.21125 198.04672,141.18186 204.99572,169.51243 50.897083,203.28089 72.430041,225.10449 105.63828,173.58829 133.90203,171.38332 115.46043,183.94499 118.55483,124.85084 129.62572,111.78222 76.572715,95.612407 79.37905,78.640796 118.93494,65.01005 126.49233,191.18565 156.61994,216.81914 45.22744,193.6425 30.201457,164.96885 43.030393,152.94172 45.22744,193.6425 13.363476,200.24842 16.303441,164.16704 120.40492,159.0221 96.484298,146.25998 64.504228,132.03238 75.370006,118.19668 92.207986,104.0314 49.578497,122.47299 37.417734,111.24767 29.934185,104.56594 44.36674,102.69505 55.592061,109.10952 19.714049,135.05619 23.786987,92.538811 52.919365,100.28962 73.23185,85.322534 165.17257,138.84325 182.54509,127.01657 177.73424,113.38583 105.63828,173.58829 93.98637,188.53982 50.897083,203.28089 143.05602,158.95528 158.80929,179.84637 126.49233,191.18565 165.17257,138.84325 164.85691,107.08595 142.7453,139.02494 135.23838,130.35744 148.98191,107.84191 118.74381,96.313635 104.97011,142.51821 97.010179,136.00113 104.56971,122.96095 102.86881,117.85827 99.844999,93.667801 122.90155,79.682683 87.397134,153.07535 68.094999,145.26155 64.504228,132.03238 57.889645,131.65441 49.578497,122.47299 39.368811,139.78089 19.714049,135.05619 54.522983,159.48982 69.417916,171.53089 45.22744,193.6425 87.397134,153.07535 84.347978,126.36274 102.86881,117.85827 118.55483,124.85084 105.63828,173.58829 87.397134,153.07535 54.522983,159.48982 49.578497,122.47299 76.572717,95.612409 135.23838,130.35744 104.97011,142.51821 143.05602,158.95528 128.89073,146.19316 104.97011,142.51821 105.63828,173.58829 120.40492,159.0221 143.05602,158.95528 161.96533,142.78548 164.5044,166.3052 173.85883,154.21125 165.17257,138.84325" />
  </g>
</svg>
