<?xml version="1.0" encoding="UTF-8" standalone="no"?>
<!-- Created with Inkscape (http://www.inkscape.org/) -->

<svg
   width="210mm"
   height="297mm"
   viewBox="0 0 210 297"
   version="1.1"
   id="svg1"
   inkscape:version="1.3.2 (091e20e, 2023-11-25, custom)"
   sodipodi:docname="fuseball.svg"
   xmlns:inkscape="http://www.inkscape.org/namespaces/inkscape"
   xmlns:sodipodi="http://sodipodi.sourceforge.net/DTD/sodipodi-0.dtd"
   xmlns="http://www.w3.org/2000/svg"
   xmlns:svg="http://www.w3.org/2000/svg">
  <sodipodi:namedview
     id="namedview1"
     pagecolor="#ffffff"
     bordercolor="#000000"
     borderopacity="0.25"
     inkscape:showpageshadow="2"
     inkscape:pageopacity="0.0"
     inkscape:pagecheckerboard="0"
     inkscape:deskcolor="#d1d1d1"
     inkscape:document-units="mm"
     inkscape:zoom="2.0485264"
     inkscape:cx="369.778"
     inkscape:cy="568.94555"
     inkscape:window-width="1920"
     inkscape:window-height="1009"
     inkscape:window-x="-8"
     inkscape:window-y="-8"
     inkscape:window-maximized="1"
     inkscape:current-layer="layer1" />
  <defs
     id="defs1" />
  <g
     inkscape:label="Layer 1"
     inkscape:groupmode="layer"
     id="layer1">
    <path
       id="path1-3"
       style="fill:none;stroke:#000000;stroke-width:0.264583px;stroke-linecap:butt;stroke-linejoin:miter;stroke-opacity:1"
       d="M 122.72051,151.51107 135.78047,138.45111 M 109.66055,138.45111 127.50079,133.67083 M 122.72051,151.51107 109.66055,138.45111 M 100.19541,154.21589 116.19053,144.98109 M 109.22016,169.85019 123.39648,181.68899 M 118.45494,153.85507 136.29518,158.63535 M 109.22016,169.85019 118.45494,153.85507 M 109.22016,169.85019 100.19284,154.2144 M 84.11996,179.63973 100.11508,170.40494 M 94.799014,183.42615 81.739048,170.36619 M 81.645504,170.40494 H 100.11508 M 90.880294,170.40494 100.11508,154.40982 M 61.367664,158.25768 H 79.837244 M 66.905064,145.29577 84.745308,140.51549 M 79.965028,158.35573 84.745308,140.51549 M 100.19541,154.21589 82.355168,149.43561 M 109.46444,135.7418 V 117.27222 M 90.730278,136.00638 V 117.5368 M 90.862569,135.87409 H 109.33215 M 100.09736,154.34367 V 135.87409" />
  </g>
</svg>
