<?xml version="1.0" encoding="UTF-8" standalone="no"?>
<!-- Created with Inkscape (http://www.inkscape.org/) -->

<svg
   width="210mm"
   height="297mm"
   viewBox="0 0 210 297"
   version="1.1"
   id="svg1"
   inkscape:version="1.3.2 (091e20e, 2023-11-25, custom)"
   sodipodi:docname="mapV.svg"
   xmlns:inkscape="http://www.inkscape.org/namespaces/inkscape"
   xmlns:sodipodi="http://sodipodi.sourceforge.net/DTD/sodipodi-0.dtd"
   xmlns="http://www.w3.org/2000/svg"
   xmlns:svg="http://www.w3.org/2000/svg">
  <sodipodi:namedview
     id="namedview1"
     pagecolor="#ffffff"
     bordercolor="#000000"
     borderopacity="0.25"
     inkscape:showpageshadow="2"
     inkscape:pageopacity="0.0"
     inkscape:pagecheckerboard="0"
     inkscape:deskcolor="#d1d1d1"
     inkscape:document-units="mm"
     inkscape:zoom="0.72426347"
     inkscape:cx="338.96505"
     inkscape:cy="554.35628"
     inkscape:window-width="1920"
     inkscape:window-height="1009"
     inkscape:window-x="-8"
     inkscape:window-y="-8"
     inkscape:window-maximized="1"
     inkscape:current-layer="layer1" />
  <defs
     id="defs1" />
  <g
     inkscape:label="Layer 1"
     inkscape:groupmode="layer"
     id="layer1">
    <path
       id="path1-5-34"
       style="fill:none;stroke:#000000;stroke-width:0.264583px;stroke-linecap:butt;stroke-linejoin:miter;stroke-opacity:1"
       d="M 162.76536,71.71801 154.25501,86.45835 M 154.25501,86.45835 145.74466,101.19869 M 145.74466,101.19869 137.23431,115.93903 M 137.23431,115.93903 128.72396,130.67937 M 128.72396,130.67937 120.21361,145.41972 M 120.21361,145.41972 111.70326,160.16006 M 111.70326,160.16006 103.19291,174.9004 M 86.172214,174.90039 103.19291,174.9004 M 77.547302,160.2262 86.057646,174.96655 M 69.036958,145.48586 77.547302,160.2262 M 60.526614,130.74551 69.036958,145.48586 M 52.01627,116.00517 60.526614,130.74551 M 43.505926,101.26482 52.01627,116.00517 M 34.995582,86.524477 43.505926,101.26482 M 26.485238,71.784132 34.995582,86.524477" />
  </g>
</svg>
