<?xml version="1.0" encoding="UTF-8" standalone="no"?>
<!-- Created with Inkscape (http://www.inkscape.org/) -->

<svg
   width="210mm"
   height="297mm"
   viewBox="0 0 210 297"
   version="1.1"
   id="svg1"
   inkscape:version="1.3.2 (091e20e, 2023-11-25, custom)"
   sodipodi:docname="mapheart.svg"
   xmlns:inkscape="http://www.inkscape.org/namespaces/inkscape"
   xmlns:sodipodi="http://sodipodi.sourceforge.net/DTD/sodipodi-0.dtd"
   xmlns="http://www.w3.org/2000/svg"
   xmlns:svg="http://www.w3.org/2000/svg">
  <sodipodi:namedview
     id="namedview1"
     pagecolor="#ffffff"
     bordercolor="#000000"
     borderopacity="0.25"
     inkscape:showpageshadow="2"
     inkscape:pageopacity="0.0"
     inkscape:pagecheckerboard="0"
     inkscape:deskcolor="#d1d1d1"
     inkscape:document-units="mm"
     inkscape:zoom="1.0242632"
     inkscape:cx="446.66253"
     inkscape:cy="866.47649"
     inkscape:window-width="1920"
     inkscape:window-height="1009"
     inkscape:window-x="-8"
     inkscape:window-y="-8"
     inkscape:window-maximized="1"
     inkscape:current-layer="layer1" />
  <defs
     id="defs1" />
  <g
     inkscape:label="Layer 1"
     inkscape:groupmode="layer"
     id="layer1">
    <path
       id="path1-5-1"
       style="fill:none;stroke:#000000;stroke-width:0.270642px;stroke-linecap:butt;stroke-linejoin:miter;stroke-opacity:1"
       d="M 92.138587,225.87827 110.44511,236.44753 M 81.804447,207.97901 92.137077,225.87565 M 67.191897,193.36647 81.804447,207.97901 M 56.859267,175.46983 67.191897,193.36647 M 62.207837,155.50873 56.859267,175.46983 M 80.104477,145.1761 62.207837,155.50873 M 100.06558,150.52466 80.104477,145.1761 M 110.3982,168.4213 100.06558,150.52466 M 128.89219,225.87827 110.58567,236.44753 M 139.22633,207.97901 128.8937,225.87565 M 153.83888,193.36647 139.22633,207.97901 M 164.17151,175.46983 153.83888,193.36647 M 158.82294,155.50873 164.17151,175.46983 M 140.9263,145.1761 158.82294,155.50873 M 120.9652,150.52466 140.9263,145.1761 M 110.63258,168.4213 120.9652,150.52466" />
  </g>
</svg>
